<svg width="21" height="48" viewBox="0 0 21 48" fill="none" xmlns="http://www.w3.org/2000/svg">
<path d="M0 18.8979V28.9027C0 34.4055 4.50208 38.9076 10.0048 38.9076C15.5076 38.9076 20.0097 34.4055 20.0097 28.9027V18.8979C20.0097 13.3951 15.5076 8.89307 10.0048 8.89307C4.50208 8.89307 0 13.3951 0 18.8979ZM10.0048 11.1162C14.2848 11.1162 17.7862 14.618 17.7862 18.8975V28.9023C17.7862 33.1823 14.2844 36.6837 10.0048 36.6837C5.72489 36.6837 2.22349 33.1819 2.22349 28.9023V18.8975C2.22349 14.6176 5.72489 11.1158 10.0048 11.1158V11.1162Z" fill="#A2957A"/>
<path d="M10.0049 20.5656C10.6163 20.5656 11.1164 20.0654 11.1164 19.454V16.1189C11.1164 15.5074 10.6163 15.0073 10.0049 15.0073C9.39346 15.0073 8.89331 15.5075 8.89331 16.1189V19.454C8.89331 20.0654 9.39346 20.5656 10.0049 20.5656Z" fill="#A2957A"/>
<path d="M9.22671 47.4673C9.44887 47.6895 9.72686 47.8007 10.0048 47.8007C10.2828 47.8007 10.5608 47.6895 10.783 47.4673L13.5621 44.6882C14.0068 44.2435 14.0068 43.5766 13.5621 43.1319C13.1174 42.6872 12.4505 42.6872 12.0058 43.1319L10.0048 45.1328L8.00385 43.1319C7.55914 42.6872 6.8923 42.6872 6.44755 43.1319C6.00284 43.5766 6.00284 44.2434 6.44755 44.6882L9.22671 47.4673Z" fill="#A2957A"/>
<path d="M9.22667 0.333483L6.44755 3.1126C6.00284 3.55731 6.00284 4.22415 6.44755 4.66891C6.66971 4.89146 6.9477 5.00273 7.22568 5.00273C7.50366 5.00273 7.78166 4.89146 8.00381 4.6693L10.0048 2.66833L12.0057 4.6693C12.2279 4.89146 12.5059 5.00273 12.7839 5.00273C13.0619 5.00273 13.3399 4.89146 13.562 4.6693C14.0067 4.22459 14.0067 3.55775 13.562 3.11299L10.7829 0.333871C10.3382 -0.111226 9.67135 -0.111226 9.22659 0.333483L9.22667 0.333483Z" fill="#A2957A"/>
</svg>
