<?xml version="1.0" encoding="UTF-8"?>
<svg viewBox="0 0 171 167" xmlns="http://www.w3.org/2000/svg">
<path d="m88.154 154.82-11.516-12.123c-0.9343 0.799-3.1145 2.767-4.1807 3.434-4.6487 3.122-10.228 4.554-15.805 4.057s-10.815-2.893-14.839-6.788c-4.0235-3.894-6.5887-9.051-7.2672-14.61-0.6785-5.558 0.5709-11.181 3.5393-15.929v-0.02l5.4984-8.413 17.39-26.569c2.4219-3.7066 3.2723-8.2234 2.3639-12.557-0.9083-4.3335-3.5009-8.1287-7.2074-10.551l-32.068 49.038-0.3434 0.607c-0.5431 0.895-1.0662 1.797-1.5413 2.727-2.7222 5.307-4.2546 11.144-4.4904 17.104-0.2359 5.959 0.8305 11.899 3.1247 17.404 7.439 18.013 26.917 28.43 46.02 24.569 5.4348-1.091 10.595-3.264 15.173-6.389 1.5813-1.098 3.6377-2.839 6.1493-4.991z" fill="#F8B9B6"/>
<path d="m22.64 110.83 7.986-14.698c-1.0302-0.6509-3.5937-2.1083-4.556-2.9189-4.4129-3.4542-7.5055-8.3192-8.7601-13.781-1.2547-5.4617-0.5953-11.189 1.8677-16.222 2.4631-5.0337 6.5804-9.0687 11.663-11.43s10.822-2.9045 16.257-1.5399h0.024l9.703 2.6275 30.618 8.3014c4.2742 1.1582 8.8334 0.5712 12.675-1.6318 3.841-2.203 6.65-5.8417 7.809-10.116l-56.561-15.317-0.6828-0.1358c-1.0142-0.2436-2.0364-0.4592-3.0706-0.6269-5.8885-0.9488-11.913-0.6025-17.654 1.0146s-11.06 4.4663-15.588 8.349c-14.83 12.642-18.719 34.388-9.144 51.362 2.7121 4.8322 6.3675 9.0704 10.749 12.462 1.5493 1.158 3.8413 2.575 6.6644 4.3z" fill="#F8B9B6"/>
<path d="m44.23 34.929 16.443 3.0386c0.2955-1.1779 0.8904-4.0648 1.3656-5.2348 1.9241-5.2617 5.5964-9.7034 10.403-12.582 4.8064-2.8788 10.455-4.0201 16.002-3.2332 5.547 0.787 10.656 3.4545 14.472 7.5565 3.816 4.102 6.108 9.3898 6.492 14.979v0.0279l0.496 10.038 1.569 31.685c0.22 4.4222 2.187 8.5759 5.469 11.548s7.61 4.5188 12.032 4.3005l-2.915-58.51-0.079-0.6908c-0.084-1.0421-0.192-2.0803-0.356-3.1145-0.915-5.8927-3.104-11.515-6.414-16.475-3.311-4.9603-7.662-9.1395-12.752-12.246-16.607-10.198-38.489-7.1874-51.674 7.1875-3.7591 4.0723-6.661 8.859-8.5331 14.075-0.6109 1.8169-1.2498 4.4323-2.0204 7.6507z" fill="#F8B9B6"/>
<path d="m123.09 32.006 2.192 16.567c1.198-0.0799 4.14-0.3993 5.398-0.3155 5.597 0.2049 10.954 2.325 15.176 6.0057 4.221 3.6807 7.051 8.699 8.017 14.216 0.965 5.517 8e-3 11.198-2.713 16.094s-7.039 8.7089-12.234 10.802h-0.02l-9.396 3.5938-29.652 11.284c-2.051 0.78-3.9281 1.957-5.524 3.463s-2.8792 3.312-3.7767 5.315c-0.8974 2.003-1.3913 4.162-1.4535 6.356s0.3086 4.378 1.0911 6.428l54.752-20.848 0.631-0.291c0.967-0.399 1.921-0.827 2.851-1.302 5.323-2.692 9.994-6.512 13.688-11.195 3.695-4.6826 6.323-10.115 7.703-15.918 4.568-18.943-5.067-38.82-22.792-46.926-5.036-2.3155-10.485-3.596-16.024-3.7654-1.929-0.0239-4.616 0.1757-7.914 0.4352z" fill="#F8B9B6"/>
<path d="m150.24 106.1-15.089 7.188c0.451 1.13 1.665 3.813 1.968 5.039 1.539 5.388 1.181 11.141-1.014 16.297-2.196 5.156-6.095 9.401-11.046 12.025-4.952 2.624-10.654 3.469-16.153 2.391-5.499-1.077-10.462-4.01-14.057-8.308v-0.02l-6.321-7.811-19.897-24.712c-2.7787-3.445-6.8115-5.646-11.212-6.118-4.4005-0.473-8.8084 0.822-12.255 3.598l36.736 45.632 0.4712 0.515c0.6788 0.799 1.3776 1.569 2.1163 2.308 4.2044 4.232 9.2809 7.495 14.876 9.564 5.5948 2.069 11.574 2.893 17.52 2.415 19.43-1.509 35.358-16.818 37.59-36.177 0.646-5.504 0.179-11.082-1.374-16.403-0.571-1.865-1.593-4.364-2.859-7.423z" fill="#F8B9B6"/>
</svg>
