<svg viewBox="0 0 171 167" xmlns="http://www.w3.org/2000/svg"><path d="m88.154 154.82-11.516-12.123c-.934.799-3.115 2.767-4.18 3.434a24.456 24.456 0 0 1-37.912-17.341 24.458 24.458 0 0 1 3.54-15.929v-.02l5.498-8.413 17.39-26.569a16.695 16.695 0 0 0-4.844-23.108l-32.068 49.038-.343.607a42.813 42.813 0 0 0-1.541 2.727 41.03 41.03 0 0 0-1.366 34.508c7.439 18.013 26.917 28.43 46.02 24.569a41.348 41.348 0 0 0 15.173-6.389c1.581-1.098 3.638-2.839 6.15-4.991z" fill="#F8B9B6"/><path d="m22.64 110.83 7.986-14.698c-1.03-.65-3.594-2.108-4.556-2.919A24.453 24.453 0 0 1 47.098 50.24h.024l9.703 2.628 30.618 8.301a16.7 16.7 0 0 0 20.484-11.748L51.366 34.104l-.683-.135a41.79 41.79 0 0 0-3.07-.627 41.037 41.037 0 0 0-33.243 9.363C-.46 55.347-4.349 77.093 5.226 94.067a41.356 41.356 0 0 0 10.75 12.462c1.548 1.158 3.84 2.575 6.664 4.3z" fill="#F8B9B6"/><path d="m44.23 34.929 16.443 3.039c.295-1.178.89-4.065 1.366-5.235a24.456 24.456 0 0 1 40.877-8.259 24.453 24.453 0 0 1 6.492 14.98v.027l.496 10.038 1.569 31.685a16.698 16.698 0 0 0 17.5 15.849l-2.914-58.51-.08-.691a40.767 40.767 0 0 0-.355-3.115 41.019 41.019 0 0 0-19.166-28.72c-16.608-10.2-38.49-7.189-51.674 7.186a41.34 41.34 0 0 0-8.533 14.075c-.611 1.817-1.25 4.432-2.02 7.65z" fill="#F8B9B6"/><path d="m123.09 32.006 2.192 16.567c1.198-.08 4.14-.4 5.398-.316a24.456 24.456 0 0 1 23.193 20.222 24.455 24.455 0 0 1-14.947 26.896h-.02l-9.396 3.594-29.652 11.284a16.697 16.697 0 0 0-9.663 21.562l54.752-20.848.63-.291a38.766 38.766 0 0 0 2.852-1.302 41.013 41.013 0 0 0 21.391-27.113c4.568-18.943-5.067-38.82-22.792-46.926a41.387 41.387 0 0 0-16.024-3.765c-1.93-.024-4.616.175-7.914.435z" fill="#F8B9B6"/><path d="m150.24 106.1-15.089 7.188c.451 1.13 1.665 3.813 1.968 5.039a24.457 24.457 0 0 1-12.06 28.322 24.452 24.452 0 0 1-30.21-5.917v-.02l-6.321-7.811-19.897-24.712a16.692 16.692 0 0 0-23.467-2.52L81.9 151.301l.471.515a38.606 38.606 0 0 0 2.116 2.308 41.025 41.025 0 0 0 32.396 11.979c19.43-1.509 35.358-16.818 37.59-36.177a41.343 41.343 0 0 0-1.374-16.403c-.57-1.865-1.592-4.364-2.858-7.423z" fill="#F8B9B6"/></svg>