<svg xmlns="http://www.w3.org/2000/svg" width="133" height="35" fill="none" xmlns:v="https://vecta.io/nano"><path d="M12.832 27.49a17.68 17.68 0 0 1 9.88 2.69 19.49 19.49 0 0 1-19.76 0 17.68 17.68 0 0 1 9.88-2.69zm0-2.08c-7.07 0-11.15 2.94-12.57 4.2a.74.74 0 0 0-.262.565.74.74 0 0 0 .262.565C1.682 32 5.762 35 12.832 35s11.15-2.94 12.58-4.21a.74.74 0 0 0 .262-.565.74.74 0 0 0-.262-.565c-1.43-1.26-5.51-4.2-12.58-4.2v-.05z" fill="url(#A)"/><path d="M12.832 0c-9 0-10.68 7.81-10.68 7.81h21.36S22.312 0 12.832 0z" fill="url(#B)"/><path d="M12.832 12.48c-9 0-10.68 7.8-10.68 7.8h21.36s-1.2-7.8-10.68-7.8z" fill="url(#C)"/><g fill="#fef4de"><path d="M39.712 11h1.72v2.46h.17a4.4 4.4 0 0 1 4-2.81h1v1.75h-1.17c-2.57 0-4 2.08-4 5.08v7.69h-1.75l.03-14.17zm9.27 7.08a7.36 7.36 0 0 1 7.355-7.631 7.36 7.36 0 0 1 7.355 7.631 7.36 7.36 0 0 1-7.355 7.632 7.36 7.36 0 0 1-7.355-7.632zm12.9 0c0-3.37-2.27-5.86-5.55-5.86s-5.55 2.52-5.55 5.86 2.3 5.85 5.55 5.85 5.55-2.44 5.55-5.85zm5.17 3.19l1.62-.46c.16 2.05 1.58 3.12 3.93 3.12s3.59-1.18 3.59-2.76c0-4.35-8.65-1.07-8.65-6.7 0-2.38 2.17-3.83 4.95-3.83 2.52 0 4.9 1.42 5.15 4l-1.56.44a3.36 3.36 0 0 0-3.64-2.9c-1.94 0-3.2.93-3.2 2.32 0 3.91 8.67.63 8.67 6.65 0 2.62-2.16 4.37-5.44 4.37s-5.12-1.87-5.42-4.25zm14.44-3.14c0-4.54 2.93-7.49 6.78-7.49 4.22 0 6.68 2.92 6.68 7.19v.76h-11.65c.05 3.45 2.05 5.34 5.14 5.34a4.68 4.68 0 0 0 4.65-3.39l1.69.41a6.36 6.36 0 0 1-6.37 4.56c-4.27 0-6.92-2.98-6.92-7.38zm11.68-1a4.71 4.71 0 0 0-4.9-4.89 4.93 4.93 0 0 0-4.95 4.89h9.85zm7.36 4.06v-8.75h-3.2V11h3.33V6.81h1.62V11h4.51v1.45h-4.51v8.73c0 1.72.71 2.46 2.43 2.46h1.89v1.53h-1.89c-2.57-.01-4.18-1.17-4.18-3.98z"/><path d="M109.782 21.19v-8.75h-6.18V11h6.33V6.81h1.62V11h4.51v1.45h-4.51v8.73c0 1.72.71 2.46 2.43 2.46h1.86v1.53h-1.89c-2.56-.01-4.17-1.17-4.17-3.98zm9.43-3.06c0-4.54 2.93-7.49 6.78-7.49 4.22 0 6.68 2.92 6.68 7.19v.76h-11.65c.05 3.45 2.05 5.34 5.14 5.34a4.68 4.68 0 0 0 2.908-.896c.842-.614 1.455-1.492 1.742-2.494l1.69.41a6.36 6.36 0 0 1-6.37 4.56c-4.26 0-6.92-2.98-6.92-7.38zm11.68-1c.026-.65-.084-1.298-.321-1.903a4.71 4.71 0 0 0-2.675-2.669 4.71 4.71 0 0 0-1.904-.318 4.93 4.93 0 0 0-4.95 4.89h9.85z"/></g><defs><linearGradient id="A" x1="-.008" y1="30.18" x2="25.672" y2="30.18" gradientUnits="userSpaceOnUse"><stop stop-color="#f86e38"/><stop offset=".58" stop-color="#f99d49"/><stop offset="1" stop-color="#fabb54"/></linearGradient><linearGradient id="B" x1="2.152" y1="3.9" x2="28.022" y2="3.9" gradientUnits="userSpaceOnUse"><stop stop-color="#f86e38"/><stop offset=".4" stop-color="#f99847"/><stop offset=".79" stop-color="#faba53"/><stop offset="1" stop-color="#fac758"/></linearGradient><linearGradient id="C" x1="2.152" y1="16.38" x2="28.782" y2="16.38" gradientUnits="userSpaceOnUse"><stop stop-color="#f86e38"/><stop offset=".4" stop-color="#f99847"/><stop offset=".79" stop-color="#faba53"/><stop offset="1" stop-color="#fac758"/></linearGradient></defs></svg>