<svg width="24" height="24" fill="none" xmlns="http://www.w3.org/2000/svg"><rect width="24" height="24" rx="12" fill="url(#a)" fill-opacity=".8"/><path d="M16.026 16.833h-2.805v-3.288c0-.038-.065-.063-.065-.063h-2.312c-.039 0-.065.025-.065.063v3.288H7.974c-.532 0-.974-.43-.974-.948v-5.338c0-.329.143-.645.377-.885l.013-.013 3.883-3.364a1.088 1.088 0 0 1 1.467 0l3.883 3.377c.247.227.377.556.377.885v5.338c0 .53-.429.948-.974.948z" fill="#FEF4DE" fill-opacity=".8"/><defs><linearGradient id="a" x1="-.027" y1="12" x2="44" y2="12" gradientUnits="userSpaceOnUse"><stop stop-color="#FAC758"/><stop offset=".33" stop-color="#FFA254"/><stop offset=".66" stop-color="#F86E38"/><stop offset="1" stop-color="#F7513E"/></linearGradient></defs></svg>