<svg width="24" height="24" fill="none" xmlns="http://www.w3.org/2000/svg"><rect width="24" height="24" rx="12" fill="url(#a)" fill-opacity=".8"/><path fill-rule="evenodd" clip-rule="evenodd" d="M6 7a1 1 0 0 0-1 1v8a1 1 0 0 0 1 1h12a1 1 0 0 0 1-1V8a1 1 0 0 0-1-1H6zm5.256 7.385h-.694l2.044-4.77h.698l-2.048 4.77zm-1.93-.563L7.35 12.158l1.974-1.66.457.462-1.453 1.192 1.453 1.207-.457.463zm7.323-1.664-1.974-1.66-.454.462 1.45 1.204-1.45 1.195.454.463 1.974-1.664z" fill="#FEF4DE" fill-opacity=".8"/><defs><linearGradient id="a" x1="-.027" y1="12" x2="44" y2="12" gradientUnits="userSpaceOnUse"><stop stop-color="#FAC758"/><stop offset=".33" stop-color="#FFA254"/><stop offset=".66" stop-color="#F86E38"/><stop offset="1" stop-color="#F7513E"/></linearGradient></defs></svg>