<svg width="24" height="24" fill="none" xmlns="http://www.w3.org/2000/svg"><rect width="24" height="24" rx="12" fill="url(#a)" fill-opacity=".8"/><path fill-rule="evenodd" clip-rule="evenodd" d="M8.2 6A1.2 1.2 0 0 0 7 7.2v9.6A1.2 1.2 0 0 0 8.2 18h7.6a1.2 1.2 0 0 0 1.2-1.2V7.2A1.2 1.2 0 0 0 15.8 6H8.2zm1.366 5.625a.375.375 0 0 0 0 .75h4.902a.375.375 0 0 0 0-.75H9.566zM9.19 14c0-.207.168-.375.375-.375h4.902a.375.375 0 0 1 0 .75H9.566A.375.375 0 0 1 9.19 14zm.375-4.375a.375.375 0 0 0 0 .75h2.228a.375.375 0 0 0 0-.75H9.566z" fill="#FEF4DE" fill-opacity=".8"/><defs><linearGradient id="a" x1="-.027" y1="12" x2="44" y2="12" gradientUnits="userSpaceOnUse"><stop stop-color="#FAC758"/><stop offset=".33" stop-color="#FFA254"/><stop offset=".66" stop-color="#F86E38"/><stop offset="1" stop-color="#F7513E"/></linearGradient></defs></svg>